<svg xmlns="http://www.w3.org/2000/svg" xmlns:xlink="http://www.w3.org/1999/xlink" width="50.896" height="24.994" viewBox="0 0 50.896 24.994">
  <defs>
    <filter id="interface_1_" x="0" y="0" width="26.494" height="24.994" filterUnits="userSpaceOnUse">
      <feOffset dy="3" input="SourceAlpha"/>
      <feGaussianBlur stdDeviation="3" result="blur"/>
      <feFlood flood-opacity="0.325"/>
      <feComposite operator="in" in2="blur"/>
      <feComposite in="SourceGraphic"/>
    </filter>
  </defs>
  <g id="Group_29" data-name="Group 29" transform="translate(-556.104 -922.607)">
    <g id="Group_30" data-name="Group 30">
      <g id="Group_24" data-name="Group 24" transform="translate(17 16)">
        <circle id="Ellipse_42" data-name="Ellipse 42" cx="1" cy="1" r="1" transform="translate(555 922)" fill="#fff"/>
        <circle id="Ellipse_41" data-name="Ellipse 41" cx="1" cy="1" r="1" transform="translate(547 922)" fill="#fff"/>
        <g id="Group_19" data-name="Group 19" transform="translate(543 910)">
          <g id="Group_5" data-name="Group 5">
            <g id="Group_4" data-name="Group 4">
              <path id="Path_83" data-name="Path 83" d="M16.057,1.575H3.15a.386.386,0,0,0-.111.026L2.722.558A.787.787,0,0,0,1.969,0H.394A.394.394,0,0,0,0,.394v.787a.394.394,0,0,0,.394.394h.992l2.46,8.084-.919,1.072a1.642,1.642,0,0,0-.36,1.54,1.565,1.565,0,0,0,1.508,1.116H15.356a.394.394,0,0,0,.394-.394v-.787a.394.394,0,0,0-.394-.394H4.075l1.248-1.456a.781.781,0,0,0,.078-.119h7.63a1.575,1.575,0,0,0,1.426-.9L17.2,3.494a1.279,1.279,0,0,0,.12-.539V2.843A1.268,1.268,0,0,0,16.057,1.575Z" fill="#fff"/>
            </g>
          </g>
          <g id="Group_18" data-name="Group 18" transform="translate(5.104 2.607)">
            <g transform="matrix(1, 0, 0, 1, -9, -6)" filter="url(#interface_1_)">
              <path id="interface_1_2" data-name="interface (1)" d="M1.742.5h5.01A1.744,1.744,0,0,1,8.494,2.242v2.69A1.714,1.714,0,0,1,7.262,6.58l-.841.841a.249.249,0,0,1-.352,0L5.3,6.649H1.742A1.744,1.744,0,0,1,0,4.908V2.242A1.744,1.744,0,0,1,1.742.5Z" transform="translate(9 5.5)" fill="#3f414a"/>
            </g>
            <path id="Path_87" data-name="Path 87" d="M.44.727c.243,0,.44-.046.44.2a.44.44,0,0,1-.88,0C0,.681.2.727.44.727Z" transform="translate(4.872 1.627)" fill="#fff"/>
            <path id="Path_90" data-name="Path 90" d="M.44.727C.2.727,0,.681,0,.924a.44.44,0,0,0,.88,0C.88.681.683.727.44.727Z" transform="translate(2.703 1.627)" fill="#fff"/>
            <path id="Path_96" data-name="Path 96" d="M.119,1.412S.042,1.719,0,1.064A1.775,1.775,0,0,1,.256,0S.213.342.137.912.119,1.412.119,1.412Z" transform="translate(6.301 1.858) rotate(97)" fill="#fff"/>
            <path id="Path_97" data-name="Path 97" d="M.308,2.547s-.3.562-.308-.6A2.726,2.726,0,0,1,1,0S.8.619.454,1.652.308,2.547.308,2.547Z" transform="matrix(-0.438, -0.899, 0.899, -0.438, 3.789, 5.111)" fill="#fff"/>
            <path id="Path_98" data-name="Path 98" d="M.119.072S.042-.235,0,.42A1.775,1.775,0,0,0,.256,1.484S.213,1.142.137.571.119.072.119.072Z" transform="translate(3.626 1.677) rotate(83)" fill="#fff"/>
          </g>
        </g>
      </g>
      <text id="_botfy" data-name=" botfy" transform="translate(577 937)" fill="#fff" font-size="11" font-family="ArialRoundedMTBold, Arial Rounded MT Bold"><tspan x="0" y="0" xml:space="preserve"> botfy</tspan></text>
    </g>
  </g>
</svg>
